<?xml version="1.0" encoding="UTF-8" standalone="no"?>
<!-- Svg Vector Icons : http://www.onlinewebfonts.com/icon -->

<svg
   xmlns:dc="http://purl.org/dc/elements/1.1/"
   xmlns:cc="http://creativecommons.org/ns#"
   xmlns:rdf="http://www.w3.org/1999/02/22-rdf-syntax-ns#"
   xmlns:svg="http://www.w3.org/2000/svg"
   xmlns="http://www.w3.org/2000/svg"
   xmlns:sodipodi="http://sodipodi.sourceforge.net/DTD/sodipodi-0.dtd"
   xmlns:inkscape="http://www.inkscape.org/namespaces/inkscape"
   version="1.1"
   x="0px"
   y="0px"
   viewBox="0 0 1000 1000"
   enable-background="new 0 0 1000 1000"
   xml:space="preserve"
   id="svg2"
   inkscape:version="0.48.5 r10040"
   width="100%"
   height="100%"
   sodipodi:docname="img_300422.svg"><defs
   id="defs40" /><sodipodi:namedview
   pagecolor="#ffffff"
   bordercolor="#666666"
   borderopacity="1"
   objecttolerance="10"
   gridtolerance="10"
   guidetolerance="10"
   inkscape:pageopacity="0"
   inkscape:pageshadow="2"
   inkscape:window-width="938"
   inkscape:window-height="973"
   id="namedview38"
   showgrid="false"
   inkscape:zoom="0.236"
   inkscape:cx="500"
   inkscape:cy="838.98305"
   inkscape:window-x="1101"
   inkscape:window-y="261"
   inkscape:window-maximized="0"
   inkscape:current-layer="svg2" />
<metadata
   id="metadata4"> Svg Vector Icons : http://www.onlinewebfonts.com/icon <rdf:RDF><cc:Work
     rdf:about=""><dc:format>image/svg+xml</dc:format><dc:type
       rdf:resource="http://purl.org/dc/dcmitype/StillImage" /><dc:title></dc:title></cc:Work></rdf:RDF></metadata>
<path
   inkscape:connector-curvature="0"
   id="path8"
   d="m 434.88813,824.79999 c -1.8,13.6 -2.8,34.1 -4.9,47.6 -4.1,26.8 -10.3,51.8 -13.2,51.6 -8.2,-0.7 -32.7,-7.7 -46.4,-9.8 -5.7,-0.9 -12.4,-1.6 -18.2,-1.8 -6.9,-0.2 -15.2,0.6 -20.4,5.7 -2.4,2.3 -3.5,5.1 -3.5,5.1 7.4,0.3 4.6,-2.7 10.1,-1.2 5.3,4 8.7,3.5 11.8,4.6 17.4,-0.4 35.8,2.4 35.8,2.4 0,0 -32.5,4.4 -40,0.9 -2.9,-1.4 -9.1,-2.8 -15.9,-3.7 -9.3,-1.3 -27.6,-0.6 -36.3,4.1 -8,4.4 -11.3,14.4 -8.3,22.6 5,-10.2 17.3,-9.8 17.3,-9.8 0,0 13.8,5.1 26.1,6.4 12.4,1.3 33.8,-1.8 47.3,1.8 11.5,-0.7 25.8,1.5 25.8,1.5 0,0 -17.1,2.5 -20.6,17.5 -0.4,9.7 5.9,19.8 5.9,19.8 0,0 3.9,-7.9 10.1,-13.1 11.2,-9.1 44.6,-2.8 48.8,-10.8 6.8,-3.5 7.6,-27.4 7.6,-27.4 0,0 24.9,16.6 24.2,24.4 6,-3 5.3,-6.2 4.8,-9.3 -0.4,-3.1 -4.4,-10.7 -12.4,-18.6 -8,-7.9 -16.3,-22 -15.9,-31.6 0.4,-9.7 7.1,-12.3 7.1,-20.8 0,-8.5 -1.6,-11.2 -0.6,-20.8 0.4,-3.2 2.8,-24.5 4.7,-39.7 11.7,-2.7 16.4,-9.6 19.1,-18.3 4.6,-14.9 10.3,-28.3 17.4,-39.9 15.1,-2.6 36.8,-2.8 58.7,-5 5.5,15.4 18.5,45.5 24.3,60.8 10.5,27.7 18.4,54.3 15.8,55 -7.4,1.8 -31.9,2.2 -44.7,4.3 -5.4,0.9 -11.4,2.2 -16.5,3.7 -6,1.8 -12.6,5.2 -14.3,11.8 -0.8,3 -0.3,6.1 -0.3,6.1 6.5,-2 2.5,-4.1 8,-4.2 6.6,2.3 9.2,0.8 12.5,0.9 14.6,-5.6 31.7,-8.4 31.7,-8.4 0,0 -25.1,14.1 -33.4,12.8 -3.1,-0.5 -9.3,0 -15.5,1.1 -8.6,1.5 -23.8,7.7 -28.8,15 -4.5,6.7 -2.1,17.6 4.7,24.8 -1.1,-11.6 9.6,-14.9 9.6,-14.9 0,0 14.4,0.9 25.6,-1.5 11.2,-2.5 27.8,-12 41.2,-12.5 9.5,-4.1 22.7,-6.3 22.7,-6.3 0,0 -13.2,7.7 -8.3,23.5 4.7,9.7 15.4,17.8 15.4,17.8 0,0 -0.9,-9 1.8,-16 4.7,-12.4 36.5,-16.3 35.9,-25.4 3.9,-5.5 -7.9,-29.4 -7.9,-29.4 0,0 29.9,8.9 33.4,16.8 3.5,-4.8 1.2,-7.7 -0.7,-10.6 -2,-2.9 -9.3,-9.3 -20.3,-14.7 -11,-5.4 -25.4,-16.8 -30.1,-26.5 -4.7,-9.7 -0.4,-14.3 -4.9,-22.7 -4.5,-8.4 -7.3,-10.6 -11.4,-20.4 -1.5,-3.4 -9.9,-29.5 -15.9,-45.8 2.1,-0.5 4.1,-1 6.2,-1.6 19.4,-5.6 188.5,-79.7 168.3,-227.8 41.6,-14.9 79.4,-78.4 65.7,-102.8 -4.5,4.7 -21.3,7.6 -38.6,6.7 56.2,-12 104.4,-117 89.6,-144 1.1,0.9 -5.9,7 -17.3,15 14.7,-19 23.8,-59.5 15.6,-77.4 -9.7,-5.2 -21.4,-3 -31.8,1.2 6.4,-13.5 11.1,-41.8 -2.6,-57.6 -14.4,-3 -29.5,6.2 -40,15.2 11.3,-24 1,-82.099997 -31.9,-64 -10.8,5.9 -20.7,17.6 -26.1,27.7 -9.6,18.1 -52.4,135.2 -102.8,163.6 -61.1,-10.9 -191,32.4 -243.7,0.6 -20.2,-17.3 -32.2,-48.6 -41.6,-96.6 -5.3,-54 -53.7,-117.899997 -86.1,-127.699997 -10.9,-3.3 -17.1,-9 -26.5,-13.3 -2.7,-1.2 -5.5,-2.4 -8.4,-3.4 3.4,-9.5 5,-28.9 3.2,-40.8 -3.4,-22.3000003 -24.3,-8 -27.7,-12.3 -8.9,-11.4000003 -21.2,-0.8 -24.7,9 -1.8,5.1 -2.8,9.3 -5.3,1.6 -5,-15.1 -22.2,0.7 -21.2,10.1 1.3,13 1,14.6 -3.5,7.5 -4.5,-7.1 -5.1,-6 -9,-5.3 -3.9,0.6 -19.5,2.8 -16.3,15.1 5.6,21.2 -5.9,5.1 -14,12.9 -11,10.6 -20.799997,50.299997 -0.1,55.499997 -23.999997,3.9 -31.299997,32.3 -29.299997,35.4 14.099997,-4.5 24.199997,-2.4 40.899997,0.9 0,0 -2.1,13.4 5.7,21.2 7.8,7.8 10.2,34.3 30.3,29.7 12.8,-2.9 20,-5.3 23.6,-11.6 1.7,43.3 -19.3,129.9 -32.6,208.2 -17.4,102.4 -14.2,165.5 67.8,237.4 27.3,23.9 60.8,44.8 99,58.4 30.8,23.7 57.8,42.7 66.1,91.2 7.1,43 21.8,36.2 43.5,32.6 l 0,0 z" />
</svg>